<?xml version="1.0" encoding="UTF-8" standalone="no"?>
<svg
   xmlns:dc="http://purl.org/dc/elements/1.1/"
   xmlns:cc="http://creativecommons.org/ns#"
   xmlns:rdf="http://www.w3.org/1999/02/22-rdf-syntax-ns#"
   xmlns:svg="http://www.w3.org/2000/svg"
   xmlns="http://www.w3.org/2000/svg"
   id="svg2593"
   version="1.1"
   viewBox="0 0 88.616486 30.472555"
   height="30.472555mm"
   width="88.616486mm">
  <defs
     id="defs2587">
    <clipPath
       id="clipPath857"
       clipPathUnits="userSpaceOnUse">
      <path
         id="path855"
         d="M 0,1944 H 2192 V 0 H 0 Z" />
    </clipPath>
  </defs>
  <metadata
     id="metadata2590">
    <rdf:RDF>
      <cc:Work
         rdf:about="">
        <dc:format>image/svg+xml</dc:format>
        <dc:type
           rdf:resource="http://purl.org/dc/dcmitype/StillImage" />
        <dc:title></dc:title>
      </cc:Work>
    </rdf:RDF>
  </metadata>
  <g
     transform="translate(8.1095425,-142.53796)"
     id="layer1">
    <g
       id="g851"
       transform="matrix(0.35277777,0,0,-0.35277777,-437.78989,699.58231)">
      <g
         clip-path="url(#clipPath857)"
         id="g853">
        <g
           transform="translate(1428.8086,1535.1084)"
           id="g859">
          <path
             id="path861"
             style="fill:#0a9bb6;fill-opacity:1;fill-rule:nonzero;stroke:none"
             d="M 0,0 C 0.036,7.586 6.213,13.71 13.795,13.691 21.367,13.621 27.47,7.443 27.432,-0.136 27.396,-7.727 21.213,-13.851 13.627,-13.825 6.059,-13.75 -0.04,-7.576 0,0 m 40.379,-0.198 c 0.025,5.257 -1.475,10.165 -4.081,14.31 -0.157,0.33 -0.334,0.646 -0.542,0.942 l 0.009,0.009 c -4.307,6.247 -11.194,10.563 -19.138,11.413 -0.089,0.01 -0.181,0.017 -0.274,0.027 -0.358,0.034 -0.715,0.066 -1.077,0.086 -0.283,0.017 -0.569,0.023 -0.856,0.031 -0.176,0.006 -0.351,0.019 -0.528,0.021 -0.021,0 -0.042,-0.002 -0.062,-0.002 -0.01,0 -0.018,0.001 -0.028,0.001 -0.089,10e-4 -0.177,-0.006 -0.268,-0.007 -0.378,-0.002 -0.756,-0.011 -1.133,-0.029 -0.326,-0.016 -0.652,-0.042 -0.977,-0.07 -0.129,-0.011 -0.255,-0.019 -0.382,-0.032 -0.405,-0.04 -0.807,-0.09 -1.207,-0.148 C 9.827,26.353 9.818,26.352 9.809,26.35 2.595,25.302 -3.69,21.37 -7.829,15.747 -8.244,15.271 -8.588,14.73 -8.851,14.146 -11.42,10.065 -12.922,5.243 -12.948,0.063 c -0.027,-5.259 1.475,-10.164 4.082,-14.312 0.156,-0.328 0.332,-0.645 0.541,-0.94 l -0.008,-0.008 c 4.308,-6.25 11.202,-10.569 19.147,-11.416 0.08,-0.008 0.162,-0.015 0.239,-0.023 0.371,-0.036 0.738,-0.069 1.111,-0.091 0.256,-0.013 0.513,-0.019 0.772,-0.027 0.201,-0.006 0.4,-0.02 0.603,-0.021 0.024,0 0.047,0.003 0.071,0.003 0.005,0 0.013,-0.002 0.019,-0.002 0.059,0 0.12,0.003 0.179,0.003 0.413,0.002 0.823,0.011 1.231,0.032 0.315,0.015 0.628,0.042 0.941,0.067 0.139,0.013 0.281,0.022 0.42,0.037 0.398,0.037 0.789,0.087 1.18,0.144 0.02,0.002 0.04,0.005 0.059,0.008 7.207,1.052 13.485,4.984 17.622,10.601 0.414,0.476 0.756,1.016 1.021,1.6 2.57,4.079 4.072,8.904 4.097,14.084" />
        </g>
        <g
           transform="translate(1328.6577,1554.8369)"
           id="g863">
          <path
             id="path865"
             style="fill:#0a9bb6;fill-opacity:1;fill-rule:nonzero;stroke:none"
             d="m 0,0 c 0,4.217 2.779,6.52 6.326,6.52 3.546,0 6.327,-2.303 6.327,-6.52 v -5.368 h 0.193 c 1.629,5.847 4.793,11.888 11.599,11.888 4.41,0 7.67,-2.877 7.67,-6.806 0,-5.177 -3.452,-6.999 -6.902,-6.999 H 22.72 c -5.657,0 -8.724,-3.932 -8.724,-15.531 v -16.297 c 0,-3.739 -1.535,-6.999 -6.999,-6.999 -5.464,0 -6.997,3.26 -6.997,6.999 z" />
        </g>
        <g
           transform="translate(1363.8413,1554.3584)"
           id="g867">
          <path
             id="path869"
             style="fill:#0a9bb6;fill-opacity:1;fill-rule:nonzero;stroke:none"
             d="m 0,0 c 0,3.739 1.534,6.998 6.998,6.998 5.465,0 6.998,-3.259 6.998,-6.998 v -38.635 c 0,-3.738 -1.533,-6.999 -6.998,-6.999 -5.464,0 -6.998,3.261 -6.998,6.999 z m 6.998,24.665 c 4.026,0 7.286,-3.258 7.286,-7.285 0,-4.026 -3.26,-7.286 -7.286,-7.286 -4.027,0 -7.286,3.26 -7.286,7.286 0,4.027 3.259,7.285 7.286,7.285" />
        </g>
        <g
           transform="translate(1268.7339,1523.2236)"
           id="g871">
          <path
             id="path873"
             style="fill:#0a9bb6;fill-opacity:1;fill-rule:nonzero;stroke:none"
             d="m 0,0 c 0.019,3.648 -2.928,6.622 -6.578,6.641 -2.299,0.011 -4.324,-1.155 -5.519,-2.926 -2.554,-3.599 -6.757,-5.943 -11.501,-5.918 -7.742,0.038 -13.992,6.349 -13.951,14.089 0.036,7.741 6.348,13.988 14.089,13.95 4.74,-0.023 8.918,-2.406 11.432,-6.025 0.048,-0.063 0.101,-0.127 0.143,-0.195 0.016,-0.024 0.032,-0.047 0.05,-0.068 1.192,-1.635 3.116,-2.707 5.295,-2.719 3.641,-0.017 6.607,2.923 6.625,6.564 0.008,1.428 -0.442,2.75 -1.204,3.831 l 0.008,0.007 c -4.884,7.088 -13.026,11.751 -22.285,11.796 -15.031,0.075 -27.271,-12.047 -27.346,-27.076 -0.074,-15.024 12.047,-27.271 27.08,-27.344 9.038,-0.045 17.057,4.333 22.039,11.097 C -0.622,-3.145 -0.008,-1.645 0,0" />
        </g>
        <g
           transform="translate(1282.0146,1549.0605)"
           id="g875">
          <path
             id="path877"
             style="fill:#0a9bb6;fill-opacity:1;fill-rule:nonzero;stroke:none"
             d="m 0,0 c 2.571,0 4.975,-0.707 7.049,-1.921 v 7.219 c 0,3.738 -1.536,6.998 -6.999,6.998 -5.464,0 -6.997,-3.26 -6.997,-6.998 V -1.854 C -4.867,-0.67 -2.485,0 0,0" />
        </g>
        <g
           transform="translate(1315.5229,1561.3564)"
           id="g879">
          <path
             id="path881"
             style="fill:#0a9bb6;fill-opacity:1;fill-rule:nonzero;stroke:none"
             d="m 0,0 c -5.464,0 -6.999,-3.26 -6.999,-6.998 v -23.104 c 0,-6.999 -5.751,-11.024 -10.64,-11.024 -3.552,0 -5.951,1.413 -7.341,3.713 -2.366,-1.823 -5.318,-2.919 -8.528,-2.919 -2.378,0 -4.671,0.61 -6.699,1.716 1.709,-10.718 9.888,-14.016 17.391,-14.016 7.957,0 13.038,3.644 16.967,8.821 h 0.193 v -1.822 c 0,-4.218 1.917,-6.999 6.327,-6.999 4.411,0 6.326,2.781 6.326,6.999 V -6.998 C 6.997,-3.26 5.464,0 0,0" />
        </g>
        <g
           transform="translate(1282.0146,1546.2471)"
           id="g883">
          <path
             id="path885"
             style="fill:#faad3d;fill-opacity:1;fill-rule:nonzero;stroke:none"
             d="m 0,0 c -3.881,0 -7.299,-1.974 -9.31,-4.972 -2.034,-2.822 -5.338,-4.668 -9.083,-4.668 -3.806,0 -7.164,1.903 -9.189,4.804 l -10e-4,-0.002 C -29.605,-1.918 -32.977,0 -36.798,0 c -6.188,0 -11.205,-5.017 -11.205,-11.204 0,-6.189 5.017,-11.205 11.205,-11.205 3.841,0 7.228,1.935 9.247,4.881 l 0.002,-0.01 c 2.028,2.877 5.369,4.761 9.156,4.761 3.775,0 7.104,-1.874 9.134,-4.735 2.018,-2.956 5.411,-4.897 9.259,-4.897 6.188,0 11.204,5.016 11.204,11.205 C 11.204,-5.017 6.188,0 0,0" />
        </g>
        <g
           transform="translate(1296.3315,1492.6445)"
           id="g887">
          <path
             id="path889"
             style="fill:#808184;fill-opacity:1;fill-rule:nonzero;stroke:none"
             d="m 0,0 c -0.471,0 -0.917,0.082 -1.336,0.248 -0.42,0.166 -0.789,0.401 -1.103,0.707 -0.315,0.305 -0.565,0.674 -0.749,1.107 -0.185,0.433 -0.277,0.919 -0.277,1.46 0,0.541 0.093,1.03 0.282,1.466 0.187,0.436 0.44,0.807 0.758,1.113 0.318,0.304 0.686,0.54 1.103,0.706 0.416,0.165 0.851,0.248 1.302,0.248 0.466,0 0.878,-0.066 1.237,-0.197 C 1.576,6.729 1.882,6.557 2.134,6.344 2.385,6.13 2.588,5.89 2.744,5.622 2.9,5.355 3.013,5.084 3.083,4.812 L 1.842,4.42 C 1.804,4.579 1.74,4.741 1.652,4.907 1.563,5.071 1.443,5.219 1.293,5.346 1.144,5.473 0.961,5.578 0.745,5.66 0.528,5.744 0.274,5.785 -0.02,5.785 -0.273,5.785 -0.525,5.739 -0.773,5.646 -1.021,5.555 -1.244,5.416 -1.441,5.231 -1.639,5.046 -1.798,4.812 -1.918,4.525 -2.04,4.238 -2.1,3.905 -2.1,3.522 -2.1,3.16 -2.041,2.84 -1.923,2.563 -1.806,2.286 -1.649,2.054 -1.456,1.866 -1.262,1.678 -1.039,1.536 -0.788,1.437 -0.537,1.338 -0.273,1.288 0,1.288 c 0.287,0 0.539,0.044 0.759,0.13 0.22,0.086 0.406,0.195 0.558,0.329 C 1.47,1.88 1.594,2.028 1.69,2.19 1.785,2.354 1.855,2.515 1.9,2.673 L 3.131,2.301 C 3.067,2.039 2.958,1.774 2.802,1.504 2.646,1.232 2.439,0.986 2.181,0.764 1.924,0.541 1.615,0.358 1.255,0.215 0.895,0.071 0.477,0 0,0" />
        </g>
        <g
           transform="translate(1303.4673,1496.1768)"
           id="g891">
          <path
             id="path893"
             style="fill:#808184;fill-opacity:1;fill-rule:nonzero;stroke:none"
             d="m 0,0 c 0,-0.382 0.06,-0.715 0.182,-0.997 0.12,-0.284 0.281,-0.518 0.481,-0.702 0.2,-0.185 0.426,-0.322 0.677,-0.415 0.253,-0.092 0.509,-0.139 0.77,-0.139 0.26,0 0.518,0.047 0.772,0.139 0.255,0.093 0.483,0.23 0.683,0.415 0.2,0.184 0.361,0.418 0.482,0.702 0.12,0.282 0.182,0.615 0.182,0.997 0,0.382 -0.062,0.714 -0.182,0.998 C 3.926,1.28 3.765,1.514 3.565,1.699 3.365,1.884 3.137,2.022 2.882,2.114 2.628,2.207 2.37,2.253 2.11,2.253 1.849,2.253 1.593,2.207 1.34,2.114 1.089,2.022 0.863,1.884 0.663,1.699 0.463,1.514 0.302,1.28 0.182,0.998 0.06,0.714 0,0.382 0,0 m -1.365,-0.01 c 0,0.547 0.095,1.039 0.286,1.475 0.191,0.435 0.445,0.806 0.764,1.113 0.318,0.305 0.687,0.538 1.107,0.7 0.42,0.163 0.859,0.244 1.318,0.244 0.457,0 0.898,-0.081 1.322,-0.244 C 3.854,3.116 4.226,2.883 4.543,2.578 4.861,2.271 5.117,1.9 5.307,1.465 5.499,1.029 5.594,0.537 5.594,-0.01 5.594,-0.557 5.499,-1.048 5.307,-1.48 5.117,-1.913 4.861,-2.282 4.543,-2.587 4.226,-2.893 3.854,-3.127 3.432,-3.289 3.008,-3.451 2.567,-3.532 2.11,-3.532 c -0.459,0 -0.898,0.081 -1.318,0.243 -0.42,0.162 -0.789,0.396 -1.107,0.702 -0.319,0.305 -0.573,0.674 -0.764,1.107 -0.191,0.432 -0.286,0.923 -0.286,1.47" />
        </g>
        <g
           transform="translate(1316.6289,1492.7881)"
           id="g895">
          <path
             id="path897"
             style="fill:#808184;fill-opacity:1;fill-rule:nonzero;stroke:none"
             d="M 0,0 -3.073,4.802 V 0 H -4.392 V 6.769 H -2.75 L 0.067,2.291 V 6.769 H 1.384 V 0 Z" />
        </g>
        <g
           transform="translate(1325.9688,1492.7881)"
           id="g899">
          <path
             id="path901"
             style="fill:#808184;fill-opacity:1;fill-rule:nonzero;stroke:none"
             d="M 0,0 -3.074,4.802 V 0 H -4.392 V 6.769 H -2.75 L 0.066,2.291 V 6.769 H 1.384 V 0 Z" />
        </g>
        <g
           transform="translate(1330.9165,1492.7881)"
           id="g903">
          <path
             id="path905"
             style="fill:#808184;fill-opacity:1;fill-rule:nonzero;stroke:none"
             d="M 0,0 V 6.769 H 4.239 V 5.526 H 1.318 V 3.98 H 3.962 V 2.807 H 1.318 V 1.241 H 4.239 V 0 Z" />
        </g>
        <g
           transform="translate(1341.4878,1492.6445)"
           id="g907">
          <path
             id="path909"
             style="fill:#808184;fill-opacity:1;fill-rule:nonzero;stroke:none"
             d="m 0,0 c -0.471,0 -0.917,0.082 -1.336,0.248 -0.421,0.166 -0.789,0.401 -1.103,0.707 -0.316,0.305 -0.565,0.674 -0.749,1.107 -0.185,0.433 -0.277,0.919 -0.277,1.46 0,0.541 0.093,1.03 0.281,1.466 0.188,0.436 0.441,0.807 0.759,1.113 0.318,0.304 0.686,0.54 1.103,0.706 0.416,0.165 0.851,0.248 1.302,0.248 0.465,0 0.878,-0.066 1.237,-0.197 C 1.576,6.729 1.882,6.557 2.133,6.344 2.385,6.13 2.588,5.89 2.744,5.622 2.9,5.355 3.013,5.084 3.083,4.812 L 1.842,4.42 C 1.804,4.579 1.74,4.741 1.651,4.907 1.563,5.071 1.442,5.219 1.293,5.346 1.143,5.473 0.961,5.578 0.745,5.66 0.528,5.744 0.274,5.785 -0.02,5.785 -0.274,5.785 -0.525,5.739 -0.773,5.646 -1.021,5.555 -1.244,5.416 -1.441,5.231 -1.639,5.046 -1.798,4.812 -1.918,4.525 -2.04,4.238 -2.1,3.905 -2.1,3.522 -2.1,3.16 -2.041,2.84 -1.923,2.563 -1.806,2.286 -1.65,2.054 -1.457,1.866 -1.262,1.678 -1.039,1.536 -0.788,1.437 -0.537,1.338 -0.274,1.288 0,1.288 c 0.287,0 0.539,0.044 0.759,0.13 0.22,0.086 0.406,0.195 0.558,0.329 C 1.47,1.88 1.594,2.028 1.69,2.19 1.785,2.354 1.855,2.515 1.9,2.673 L 3.13,2.301 C 3.067,2.039 2.958,1.774 2.802,1.504 2.646,1.232 2.438,0.986 2.181,0.764 1.923,0.541 1.614,0.358 1.255,0.215 0.895,0.071 0.477,0 0,0" />
        </g>
        <g
           transform="translate(1350.5161,1498.3047)"
           id="g911">
          <path
             id="path913"
             style="fill:#808184;fill-opacity:1;fill-rule:nonzero;stroke:none"
             d="M 0,0 V -5.517 H -1.327 V 0 H -3.465 V 1.252 H 2.139 V 0 Z" />
        </g>
        <g
           transform="translate(1355.5308,1492.7881)"
           id="g915">
          <path
             id="path917"
             style="fill:#808184;fill-opacity:1;fill-rule:nonzero;stroke:none"
             d="M 0,0 V 6.769 H 4.239 V 5.526 H 1.318 V 3.98 H 3.962 V 2.807 H 1.318 V 1.241 H 4.239 V 0 Z" />
        </g>
        <g
           transform="translate(1365.4819,1494.0098)"
           id="g919">
          <path
             id="path921"
             style="fill:#808184;fill-opacity:1;fill-rule:nonzero;stroke:none"
             d="m 0,0 c 0.273,0 0.534,0.043 0.782,0.129 0.248,0.086 0.465,0.218 0.65,0.395 0.184,0.179 0.331,0.404 0.439,0.674 0.108,0.27 0.162,0.59 0.162,0.959 0,0.368 -0.054,0.689 -0.162,0.959 C 1.763,3.388 1.617,3.611 1.437,3.79 1.255,3.968 1.04,4.101 0.792,4.19 0.543,4.279 0.283,4.324 0.009,4.324 H -1.05 V 0 Z M -2.368,-1.222 V 5.547 H 0.057 C 0.541,5.547 0.986,5.47 1.394,5.316 1.801,5.165 2.152,4.943 2.448,4.653 2.744,4.364 2.977,4.01 3.145,3.59 3.314,3.17 3.398,2.691 3.398,2.157 3.398,1.623 3.314,1.146 3.145,0.725 2.977,0.305 2.743,-0.048 2.443,-0.334 2.144,-0.62 1.791,-0.84 1.384,-0.993 0.977,-1.146 0.531,-1.222 0.047,-1.222 Z" />
        </g>
        <g
           transform="translate(1380.4297,1492.7881)"
           id="g923">
          <path
             id="path925"
             style="fill:#808184;fill-opacity:1;fill-rule:nonzero;stroke:none"
             d="M 0,0 V 2.807 H -2.949 V 0 h -1.318 v 6.769 h 1.318 V 4.047 H 0 V 6.769 H 1.328 V 0 Z" />
        </g>
        <g
           transform="translate(1385.3208,1492.7881)"
           id="g927">
          <path
             id="path929"
             style="fill:#808184;fill-opacity:1;fill-rule:nonzero;stroke:none"
             d="M 0,0 V 6.769 H 4.239 V 5.526 H 1.318 V 3.98 H 3.962 V 2.807 H 1.318 V 1.241 H 4.239 V 0 Z" />
        </g>
        <g
           transform="translate(1394.6392,1495.5371)"
           id="g931">
          <path
             id="path933"
             style="fill:#808184;fill-opacity:1;fill-rule:nonzero;stroke:none"
             d="M 0,0 H 1.871 L 0.935,2.558 Z M 2.31,-1.203 H -0.439 L -1.002,-2.749 H -2.396 L 0.2,4.02 H 1.728 L 4.305,-2.749 H 2.873 Z" />
        </g>
        <g
           transform="translate(1401.7861,1492.7881)"
           id="g935">
          <path
             id="path937"
             style="fill:#808184;fill-opacity:1;fill-rule:nonzero;stroke:none"
             d="M 0,0 V 6.769 H 1.318 V 1.26 H 4.334 V 0 Z" />
        </g>
        <g
           transform="translate(1411.1011,1498.3047)"
           id="g939">
          <path
             id="path941"
             style="fill:#808184;fill-opacity:1;fill-rule:nonzero;stroke:none"
             d="M 0,0 V -5.517 H -1.327 V 0 H -3.465 V 1.252 H 2.139 V 0 Z" />
        </g>
        <g
           transform="translate(1420.3828,1492.7881)"
           id="g943">
          <path
             id="path945"
             style="fill:#808184;fill-opacity:1;fill-rule:nonzero;stroke:none"
             d="M 0,0 V 2.807 H -2.949 V 0 h -1.318 v 6.769 h 1.318 V 4.047 H 0 V 6.769 H 1.328 V 0 Z" />
        </g>
        <g
           transform="translate(1428.3652,1492.6445)"
           id="g947">
          <path
             id="path949"
             style="fill:#808184;fill-opacity:1;fill-rule:nonzero;stroke:none"
             d="m 0,0 c -0.471,0 -0.917,0.082 -1.337,0.248 -0.42,0.166 -0.788,0.401 -1.103,0.707 -0.315,0.305 -0.564,0.674 -0.748,1.107 -0.185,0.433 -0.277,0.919 -0.277,1.46 0,0.541 0.093,1.03 0.281,1.466 0.188,0.436 0.441,0.807 0.759,1.113 0.318,0.304 0.686,0.54 1.103,0.706 0.416,0.165 0.851,0.248 1.302,0.248 0.465,0 0.877,-0.066 1.237,-0.197 C 1.576,6.729 1.882,6.557 2.133,6.344 2.385,6.13 2.588,5.89 2.744,5.622 2.9,5.355 3.013,5.084 3.083,4.812 L 1.842,4.42 C 1.804,4.579 1.74,4.741 1.651,4.907 1.562,5.071 1.442,5.219 1.293,5.346 1.143,5.473 0.96,5.578 0.745,5.66 0.528,5.744 0.274,5.785 -0.02,5.785 -0.274,5.785 -0.525,5.739 -0.773,5.646 -1.021,5.555 -1.245,5.416 -1.442,5.231 -1.639,5.046 -1.798,4.812 -1.918,4.525 -2.041,4.238 -2.1,3.905 -2.1,3.522 -2.1,3.16 -2.042,2.84 -1.923,2.563 -1.806,2.286 -1.65,2.054 -1.457,1.866 -1.262,1.678 -1.04,1.536 -0.788,1.437 -0.537,1.338 -0.274,1.288 0,1.288 c 0.287,0 0.539,0.044 0.758,0.13 C 0.979,1.504 1.165,1.613 1.317,1.747 1.47,1.88 1.594,2.028 1.69,2.19 1.785,2.354 1.854,2.515 1.9,2.673 L 3.13,2.301 C 3.066,2.039 2.958,1.774 2.802,1.504 2.646,1.232 2.438,0.986 2.181,0.764 1.923,0.541 1.614,0.358 1.255,0.215 0.895,0.071 0.477,0 0,0" />
        </g>
        <g
           transform="translate(1436.0884,1495.5371)"
           id="g951">
          <path
             id="path953"
             style="fill:#808184;fill-opacity:1;fill-rule:nonzero;stroke:none"
             d="M 0,0 H 1.872 L 0.935,2.558 Z M 2.31,-1.203 H -0.438 L -1.002,-2.749 H -2.396 L 0.2,4.02 H 1.728 L 4.305,-2.749 H 2.874 Z" />
        </g>
        <g
           transform="translate(1445.6323,1496.5293)"
           id="g955">
          <path
             id="path957"
             style="fill:#808184;fill-opacity:1;fill-rule:nonzero;stroke:none"
             d="M 0,0 C 0.337,0 0.598,0.087 0.783,0.259 0.967,0.431 1.06,0.656 1.06,0.936 1.06,1.223 0.967,1.452 0.783,1.624 0.598,1.795 0.337,1.881 0,1.881 H -1.07 V 0 Z M -0.382,-1.135 H -1.07 V -3.741 H -2.396 V 3.027 H 0.248 C 0.579,3.027 0.876,2.972 1.14,2.864 1.404,2.756 1.631,2.61 1.818,2.426 2.006,2.241 2.151,2.021 2.253,1.767 2.354,1.512 2.405,1.238 2.405,0.945 2.405,0.469 2.276,0.062 2.019,-0.276 1.761,-0.614 1.409,-0.846 0.963,-0.973 l 1.452,-2.768 h -1.47 z" />
        </g>
        <g
           transform="translate(1451.2476,1492.7881)"
           id="g959">
          <path
             id="path961"
             style="fill:#808184;fill-opacity:1;fill-rule:nonzero;stroke:none"
             d="M 0,0 V 6.769 H 4.238 V 5.526 H 1.318 V 3.98 H 3.961 V 2.807 H 1.318 V 1.241 h 2.92 V 0 Z" />
        </g>
        <g
           transform="translate(1410.2437,1522.5889)"
           id="g963">
          <path
             id="path965"
             style="fill:#0a9bb6;fill-opacity:1;fill-rule:nonzero;stroke:none"
             d="m 0,0 h -2.493 c -4.378,0 -8.251,3.13 -8.251,8.814 0.002,0 0.004,0 0.006,-10e-4 v 15.505 h 8.288 c 3.538,0 6.622,1.453 6.622,6.621 0,5.171 -3.084,6.623 -6.622,6.623 h -8.288 v 8.491 c 0,4.602 -2.78,6.997 -6.997,6.997 -4.218,0 -6.999,-2.395 -6.999,-6.997 V 38.768 37.562 24.318 22.893 9.499 c 0.005,10e-4 0.01,10e-4 0.015,0.002 v -3.2 c -0.019,-3.94 1.105,-7.614 3.057,-10.722 0.117,-0.246 0.25,-0.483 0.407,-0.704 l -0.006,-0.006 c 3.226,-4.682 8.391,-7.917 14.343,-8.553 0.06,-0.005 0.121,-0.01 0.18,-0.016 0.278,-0.028 0.552,-0.052 0.832,-0.069 0.191,-0.01 0.384,-0.014 0.577,-0.02 0.151,-0.005 0.3,-0.015 0.454,-0.016 0.017,0 0.035,10e-4 0.052,10e-4 h 0.014 c 0.045,0 0.09,0.002 0.135,0.002 0.077,0 0.153,0.005 0.232,0.006 h 3.484 v 0.002 c 0.065,-10e-4 0.125,-0.011 0.19,-0.011 4.411,0 7.67,2.876 7.67,6.806 C 6.902,-1.822 3.45,0 0,0" />
        </g>
      </g>
    </g>
  </g>
</svg>
